<?xml version="1.0" encoding="iso-8859-1"?>
<!-- Generator: Adobe Illustrator 19.0.0, SVG Export Plug-In . SVG Version: 6.00 Build 0)  -->
<svg version="1.1" id="Layer_1" xmlns="http://www.w3.org/2000/svg" xmlns:xlink="http://www.w3.org/1999/xlink" x="0px" y="0px"
	 viewBox="0 0 512 512" style="enable-background:new 0 0 512 512;" xml:space="preserve">
<path style="fill:#CF8F3D;" d="M512,395.131C512,459.676,397.386,512,256,512S0,459.676,0,395.131s114.616-116.87,256-116.87
	S512,330.585,512,395.131z"/>
<path style="fill:#FFBB5E;" d="M512,365.449c0,64.545-114.615,116.87-256,116.87S0,429.995,0,365.449s114.616-116.87,256-116.87
	S512,300.904,512,365.449z"/>
<path style="fill:#CF8F3D;" d="M512,335.769c0,64.545-114.615,116.87-256,116.87S0,400.314,0,335.769s114.616-116.87,256-116.87
	S512,271.223,512,335.769z"/>
<path style="fill:#FFBB5E;" d="M512,306.087c0,64.545-114.615,116.87-256,116.87S0,370.633,0,306.087s114.616-116.87,256-116.87
	S512,241.542,512,306.087z"/>
<path style="fill:#CF8F3D;" d="M512,276.406c0,64.545-114.615,116.87-256,116.87S0,340.951,0,276.406s114.616-116.87,256-116.87
	S512,211.86,512,276.406z"/>
<path style="fill:#FFBB5E;" d="M512,246.725c0,64.545-114.615,116.87-256,116.87S0,311.271,0,246.725s114.616-116.87,256-116.87
	S512,182.18,512,246.725z"/>
<path style="fill:#CF8F3D;" d="M512,217.044c0,64.545-114.615,116.87-256,116.87S0,281.589,0,217.044s114.616-116.87,256-116.87
	S512,152.498,512,217.044z"/>
<path style="fill:#FFCE76;" d="M227.165,67.273c17.68,26.602,21.61,73.972-1.017,99.418c-1.76,1.978-4.203,2.987-6.657,2.987
	c-2.105,0-4.217-0.741-5.914-2.251c-3.675-3.268-4.005-8.895-0.738-12.571c15.047-16.922,14.802-54.695-0.504-77.725
	C199.621,58.017,194.29,30.58,198.753,7.234c0.924-4.829,5.586-7.998,10.418-7.073c4.831,0.924,7.998,5.587,7.075,10.418
	C212.667,29.29,217.056,52.074,227.165,67.273z M300.2,67.274c-10.11-15.205-14.495-37.988-10.913-56.693
	c0.925-4.829-2.241-9.495-7.071-10.42c-4.833-0.925-9.495,2.241-10.42,7.071c-4.47,23.339,0.858,50.777,13.575,69.901
	c15.307,23.027,15.554,60.8,0.506,77.727c-3.268,3.675-2.936,9.304,0.739,12.571c1.696,1.508,3.809,2.249,5.914,2.249
	c2.455,0,4.898-1.01,6.658-2.989C321.812,141.241,317.881,93.87,300.2,67.274z M113.543,190.894h-2.441
	c-4.917,0-8.904,3.987-8.904,8.904s3.987,8.904,8.904,8.904h2.441c4.917,0,8.904-3.987,8.904-8.904S118.46,190.894,113.543,190.894z
	 M208.54,247.109h-2.441c-4.917,0-8.904,3.987-8.904,8.904s3.987,8.904,8.904,8.904h2.441c4.917,0,8.904-3.987,8.904-8.904
	S213.458,247.109,208.54,247.109z M317.305,217.71h-2.442c-4.917,0-8.904,3.987-8.904,8.904s3.987,8.904,8.904,8.904h2.442
	c4.917,0,8.904-3.987,8.904-8.904S322.223,217.71,317.305,217.71z M429.986,207.871h-2.438c-4.917,0-8.904,3.987-8.904,8.904
	c0,4.917,3.987,8.904,8.904,8.904h2.438c4.917,0,8.904-3.987,8.904-8.904C438.89,211.858,434.904,207.871,429.986,207.871z"/>
<g>
</g>
<g>
</g>
<g>
</g>
<g>
</g>
<g>
</g>
<g>
</g>
<g>
</g>
<g>
</g>
<g>
</g>
<g>
</g>
<g>
</g>
<g>
</g>
<g>
</g>
<g>
</g>
<g>
</g>
</svg>
