<?xml version="1.0" encoding="iso-8859-1"?>
<!-- Generator: Adobe Illustrator 19.0.0, SVG Export Plug-In . SVG Version: 6.00 Build 0)  -->
<svg version="1.1" id="Layer_1" xmlns="http://www.w3.org/2000/svg" xmlns:xlink="http://www.w3.org/1999/xlink" x="0px" y="0px"
	 viewBox="0 0 512.001 512.001" style="enable-background:new 0 0 512.001 512.001;" xml:space="preserve">
<path style="fill:#F2F2F2;" d="M335.651,113.061c0,11.59-1.958,22.828-5.619,33.518c-18.754,54.644-82.227,94.851-157.644,94.851
	s-138.89-40.208-157.644-94.851c-3.661-10.69-5.619-21.928-5.619-33.518C9.126,113.061,335.651,113.061,335.651,113.061z"/>
<path style="fill:#E6E6E6;" d="M65.827,146.579c-2.475-10.69-3.798-21.928-3.798-33.518H9.126c0,11.59,1.958,22.828,5.619,33.518
	c18.754,54.644,82.227,94.851,157.644,94.851C121.409,241.43,78.503,201.223,65.827,146.579z"/>
<path style="fill:#F4C67D;" d="M330.032,146.579c-18.754,54.644-82.227,94.851-157.644,94.851s-138.89-40.208-157.644-94.851
	H330.032z"/>
<polygon style="fill:#F2F2F2;" points="442.678,146.574 231.069,146.574 253.563,467.635 420.184,467.635 "/>
<polygon style="fill:#E6E6E6;" points="274.044,146.579 287.397,467.631 253.563,467.631 231.075,146.579 "/>
<polygon style="fill:#F97E62;" points="436.778,230.837 430.271,323.671 243.476,323.671 236.969,230.837 "/>
<polygon style="fill:#E86B56;" points="281.409,323.671 243.476,323.671 236.969,230.837 277.541,230.837 "/>
<polygon style="fill:#F4C67D;" points="426.574,376.44 420.189,467.631 253.558,467.631 247.173,376.44 "/>
<polygon style="fill:#BADB82;" points="430.271,323.671 426.574,376.44 247.173,376.44 243.476,323.671 "/>
<polygon style="fill:#E0B16E;" points="287.393,467.631 253.558,467.631 247.173,376.44 283.598,376.44 "/>
<polygon style="fill:#ABC971;" points="283.598,376.44 247.173,376.44 243.476,323.671 281.409,323.671 "/>
<path style="fill:#E0B16E;" d="M172.389,241.43c-75.416,0-138.89-40.208-157.644-94.851h51.08
	C78.498,201.223,121.406,241.43,172.389,241.43z"/>
<path d="M442.677,137.432H231.07c-2.53,0-4.946,1.051-6.671,2.901s-2.605,4.333-2.428,6.858l17.511,249.993
	c0.351,5.025,4.703,8.817,9.737,8.462c5.025-0.352,8.814-4.71,8.462-9.736l-10.926-155.977h30.786c5.037,0,9.121-4.084,9.121-9.121
	s-4.084-9.121-9.121-9.121h-32.064l-4.624-66.015h192.041l-4.624,66.015H307.946c-5.038,0-9.121,4.084-9.121,9.121
	s4.084,9.121,9.121,9.121h119.046l-15.308,218.551h-149.62l-2.28-32.552c-0.353-5.025-4.71-8.822-9.736-8.462
	c-5.025,0.351-8.814,4.712-8.462,9.736l2.874,41.036c0.334,4.778,4.308,8.484,9.098,8.484h166.631c4.791,0,8.765-3.706,9.098-8.484
	l22.487-321.052c0.178-2.524-0.703-5.007-2.428-6.858C447.623,138.48,445.206,137.432,442.677,137.432z"/>
<path d="M268.557,332.766H405.19c5.038,0,9.121-4.084,9.121-9.121c0-5.037-4.084-9.121-9.121-9.121H268.557
	c-5.038,0-9.121,4.084-9.121,9.121C259.436,328.682,263.52,332.766,268.557,332.766z"/>
<path d="M402.757,367.293H270.99c-5.037,0-9.121,4.084-9.121,9.121c0,5.037,4.084,9.121,9.121,9.121h131.767
	c5.038,0,9.121-4.084,9.121-9.121C411.878,371.377,407.795,367.293,402.757,367.293z"/>
<path d="M506.139,72.358l-85.737-32.836c-2.496-0.956-5.284-0.77-7.629,0.51c-2.346,1.278-4.012,3.522-4.561,6.137l-15.049,71.802
	c-1.034,4.93,2.126,9.765,7.056,10.799c0.631,0.133,1.26,0.196,1.88,0.196c4.225,0,8.017-2.953,8.918-7.252l12.854-61.327
	l75.742,29.009c4.705,1.801,9.979-0.551,11.781-5.255C513.195,79.435,510.843,74.16,506.139,72.358z"/>
<path d="M226.505,458.486h-44.996V250.334c8.501-0.354,16.955-1.198,25.231-2.53c4.974-0.8,8.358-5.481,7.556-10.454
	c-0.8-4.974-5.48-8.356-10.454-7.556c-10.277,1.654-20.86,2.492-31.455,2.492c-65.581,0-121.723-31.853-143.952-76.61h171.215
	c5.037,0,9.121-4.084,9.121-9.121s-4.084-9.121-9.121-9.121H21.498c-1.346-4.988-2.297-10.085-2.808-15.278h316.964
	c5.038,0,9.121-4.084,9.121-9.121s-4.084-9.121-9.121-9.121H9.121c-5.037,0-9.121,4.084-9.121,9.121
	c0,37.148,18.22,71.932,51.303,97.944c30.268,23.799,69.734,37.616,111.963,39.359v208.151H118.27c-5.037,0-9.121,4.084-9.121,9.121
	c0,5.038,4.084,9.121,9.121,9.121h108.236c5.037,0,9.121-4.084,9.121-9.121C235.627,462.572,231.542,458.486,226.505,458.486z"/>
<path d="M81.522,84.634c1.086,4.084,4.775,6.782,8.81,6.782c0.776,0,1.564-0.1,2.348-0.308c4.868-1.294,7.767-6.29,6.473-11.159
	L89.082,42.05c-1.294-4.868-6.29-7.765-11.159-6.473c-4.868,1.294-7.767,6.289-6.473,11.159L81.522,84.634z"/>
<circle cx="389.159" cy="265.726" r="9.121"/>
<circle cx="338.091" cy="293.091" r="9.121"/>
<circle cx="281.538" cy="262.078" r="9.121"/>
<g>
</g>
<g>
</g>
<g>
</g>
<g>
</g>
<g>
</g>
<g>
</g>
<g>
</g>
<g>
</g>
<g>
</g>
<g>
</g>
<g>
</g>
<g>
</g>
<g>
</g>
<g>
</g>
<g>
</g>
</svg>
